<svg aria-hidden="true" style="position: absolute; width: 0; height: 0; overflow: hidden;" version="1.1" xmlns="http://www.w3.org/2000/svg" xmlns:xlink="http://www.w3.org/1999/xlink">
<defs>
<symbol id="icon-envelope" viewBox="0 0 32 32">
<path d="M29 4h-26c-1.65 0-3 1.35-3 3v20c0 1.65 1.35 3 3 3h26c1.65 0 3-1.35 3-3v-20c0-1.65-1.35-3-3-3zM12.461 17.199l-8.461 6.59v-15.676l8.461 9.086zM5.512 8h20.976l-10.488 7.875-10.488-7.875zM12.79 17.553l3.21 3.447 3.21-3.447 6.58 8.447h-19.579l6.58-8.447zM19.539 17.199l8.461-9.086v15.676l-8.461-6.59z"></path>
</symbol>
<symbol id="icon-mobile" viewBox="0 0 32 32">
<path d="M23 0h-14c-1.65 0-3 1.35-3 3v26c0 1.65 1.35 3 3 3h14c1.65 0 3-1.35 3-3v-26c0-1.65-1.35-3-3-3zM12 1.5h8v1h-8v-1zM16 30c-1.105 0-2-0.895-2-2s0.895-2 2-2 2 0.895 2 2-0.895 2-2 2zM24 24h-16v-20h16v20z"></path>
</symbol>
<symbol id="icon-location" viewBox="0 0 32 32">
<path d="M16 0c-5.523 0-10 4.477-10 10 0 10 10 22 10 22s10-12 10-22c0-5.523-4.477-10-10-10zM16 16c-3.314 0-6-2.686-6-6s2.686-6 6-6 6 2.686 6 6-2.686 6-6 6z"></path>
</symbol>
<symbol id="icon-linkedin" viewBox="0 0 32 32">
<path d="M31.992 32v-0.001h0.008v-11.736c0-5.741-1.236-10.164-7.948-10.164-3.227 0-5.392 1.771-6.276 3.449h-0.093v-2.913h-6.364v21.364h6.627v-10.579c0-2.785 0.528-5.479 3.977-5.479 3.399 0 3.449 3.179 3.449 5.657v10.401h6.62z"></path>
<path d="M0.528 10.636h6.635v21.364h-6.635v-21.364z"></path>
<path d="M3.843 0c-2.121 0-3.843 1.721-3.843 3.843s1.721 3.879 3.843 3.879c2.121 0 3.843-1.757 3.843-3.879-0.001-2.121-1.723-3.843-3.843-3.843v0z"></path>
</symbol>
<symbol id="icon-github" viewBox="0 0 32 32">
<path d="M15.999 0.399c-8.835 0-15.999 7.163-15.999 15.999 0 7.070 4.584 13.065 10.941 15.181 0.8 0.148 1.094-0.348 1.094-0.771 0-0.381-0.016-1.642-0.022-2.978-4.452 0.968-5.39-1.889-5.39-1.889-0.728-1.85-1.776-2.342-1.776-2.342-1.452-0.994 0.11-0.972 0.11-0.972 1.606 0.112 2.452 1.648 2.452 1.648 1.428 2.446 3.744 1.738 4.657 1.33 0.144-1.034 0.557-1.74 1.016-2.14-3.554-0.403-7.29-1.776-7.29-7.907 0-1.746 0.626-3.174 1.648-4.294-0.167-0.404-0.715-2.030 0.154-4.234 0 0 1.344-0.431 4.401 1.64 1.276-0.354 2.644-0.532 4.003-0.538 1.36 0.006 2.731 0.184 4.008 0.538 3.054-2.069 4.396-1.64 4.396-1.64 0.87 2.204 0.324 3.832 0.158 4.234 1.026 1.12 1.646 2.548 1.646 4.294 0 6.145-3.744 7.497-7.306 7.893 0.574 0.496 1.087 1.47 1.087 2.962 0 2.14-0.018 3.864-0.018 4.39 0 0.426 0.288 0.924 1.1 0.768 6.354-2.118 10.932-8.114 10.932-15.179 0-8.835-7.163-15.999-16-15.999l-0.001 0.005z"></path>
</symbol>
</defs>
</svg>
