<svg aria-hidden="true" style="position: absolute; width: 0; height: 0; overflow: hidden;" version="1.1" xmlns="http://www.w3.org/2000/svg" xmlns:xlink="http://www.w3.org/1999/xlink">
<defs>
<symbol id="icon-envelope" viewBox="0 0 32 32">
<path d="M29 4h-26c-1.65 0-3 1.35-3 3v20c0 1.65 1.35 3 3 3h26c1.65 0 3-1.35 3-3v-20c0-1.65-1.35-3-3-3zM12.461 17.199l-8.461 6.59v-15.676l8.461 9.086zM5.512 8h20.976l-10.488 7.875-10.488-7.875zM12.79 17.553l3.21 3.447 3.21-3.447 6.58 8.447h-19.579l6.58-8.447zM19.539 17.199l8.461-9.086v15.676l-8.461-6.59z"></path>
</symbol>
<symbol id="icon-mobile" viewBox="0 0 32 32">
<path d="M23 0h-14c-1.65 0-3 1.35-3 3v26c0 1.65 1.35 3 3 3h14c1.65 0 3-1.35 3-3v-26c0-1.65-1.35-3-3-3zM12 1.5h8v1h-8v-1zM16 30c-1.105 0-2-0.895-2-2s0.895-2 2-2 2 0.895 2 2-0.895 2-2 2zM24 24h-16v-20h16v20z"></path>
</symbol>
<symbol id="icon-location" viewBox="0 0 32 32">
<path d="M16 0c-5.523 0-10 4.477-10 10 0 10 10 22 10 22s10-12 10-22c0-5.523-4.477-10-10-10zM16 16c-3.314 0-6-2.686-6-6s2.686-6 6-6 6 2.686 6 6-2.686 6-6 6z"></path>
</symbol>
<symbol id="icon-linkedin" viewBox="0 0 32 32">
<path d="M31.992 32v-0.001h0.008v-11.736c0-5.741-1.236-10.164-7.948-10.164-3.227 0-5.392 1.771-6.276 3.449h-0.093v-2.913h-6.364v21.364h6.627v-10.579c0-2.785 0.528-5.479 3.977-5.479 3.399 0 3.449 3.179 3.449 5.657v10.401h6.62z"></path>
<path d="M0.528 10.636h6.635v21.364h-6.635v-21.364z"></path>
<path d="M3.843 0c-2.121 0-3.843 1.721-3.843 3.843s1.721 3.879 3.843 3.879c2.121 0 3.843-1.757 3.843-3.879-0.001-2.121-1.723-3.843-3.843-3.843v0z"></path>
</symbol>
<symbol id="icon-github" viewBox="0 0 32 32">
<path d="M15.999 0.399c-8.835 0-15.999 7.163-15.999 15.999 0 7.070 4.584 13.065 10.941 15.181 0.8 0.148 1.094-0.348 1.094-0.771 0-0.381-0.016-1.642-0.022-2.978-4.452 0.968-5.39-1.889-5.39-1.889-0.728-1.85-1.776-2.342-1.776-2.342-1.452-0.994 0.11-0.972 0.11-0.972 1.606 0.112 2.452 1.648 2.452 1.648 1.428 2.446 3.744 1.738 4.657 1.33 0.144-1.034 0.557-1.74 1.016-2.14-3.554-0.403-7.29-1.776-7.29-7.907 0-1.746 0.626-3.174 1.648-4.294-0.167-0.404-0.715-2.030 0.154-4.234 0 0 1.344-0.431 4.401 1.64 1.276-0.354 2.644-0.532 4.003-0.538 1.36 0.006 2.731 0.184 4.008 0.538 3.054-2.069 4.396-1.64 4.396-1.64 0.87 2.204 0.324 3.832 0.158 4.234 1.026 1.12 1.646 2.548 1.646 4.294 0 6.145-3.744 7.497-7.306 7.893 0.574 0.496 1.087 1.47 1.087 2.962 0 2.14-0.018 3.864-0.018 4.39 0 0.426 0.288 0.924 1.1 0.768 6.354-2.118 10.932-8.114 10.932-15.179 0-8.835-7.163-15.999-16-15.999l-0.001 0.005z"></path>
</symbol>
<symbol id="icon-whatsapp" viewBox="0 0 32 32">
<path d="M14.563 0.063c-3.088 0.3-5.938 1.438-8.438 3.362-1.219 0.938-2.8 2.7-3.712 4.138-0.394 0.619-1.163 2.194-1.438 2.944-1.275 3.475-1.275 7.525-0.006 10.969 0.231 0.631 0.937 2.119 1.269 2.681l0.181 0.313-0.894 3.244c-0.494 1.788-0.9 3.325-0.9 3.419 0 0.244 0.237 0.494 0.5 0.531 0.169 0.025 0.975-0.2 3.369-0.944 1.731-0.531 3.181-0.969 3.225-0.969s0.456 0.194 0.912 0.431c3.987 2.069 8.681 2.375 12.862 0.844 0.75-0.275 2.325-1.044 2.944-1.438 2.006-1.275 3.875-3.144 5.15-5.15 0.394-0.619 1.163-2.194 1.438-2.944 0.306-0.837 0.637-2.125 0.8-3.119 0.113-0.706 0.131-1.1 0.131-2.375 0-1.738-0.094-2.556-0.488-4.056-0.3-1.125-0.575-1.856-1.125-2.975-0.825-1.681-1.681-2.875-3.056-4.256-1.381-1.375-2.575-2.231-4.256-3.056-1.538-0.756-2.962-1.206-4.625-1.469-0.919-0.144-2.969-0.212-3.844-0.125zM18.406 1.431c3.2 0.55 5.925 1.994 8.188 4.325 2.156 2.225 3.5 4.906 4.012 8.025 0.163 0.975 0.163 3.462 0 4.438-0.512 3.119-1.856 5.8-4.012 8.025-2.262 2.331-5 3.781-8.188 4.325-0.969 0.169-2.881 0.225-3.856 0.125-2.188-0.238-4.113-0.863-6.056-1.981-0.262-0.15-0.544-0.275-0.625-0.275s-1.394 0.381-2.919 0.85c-1.519 0.469-2.781 0.844-2.794 0.831s0.331-1.275 0.756-2.806c0.538-1.925 0.775-2.85 0.756-3-0.019-0.119-0.156-0.431-0.319-0.694-1.031-1.706-1.756-3.831-2.013-5.931-0.137-1.113-0.094-3.012 0.094-4.094 0.519-3.031 1.85-5.644 3.975-7.838 2.513-2.587 5.463-4.019 9.219-4.469 0.119-0.012 0.85-0.019 1.625-0.006 1.075 0.012 1.581 0.050 2.156 0.15z"></path>
<path d="M9.219 6.063c-0.762 0.081-0.925 0.15-1.25 0.513-1.419 1.581-2.294 3.831-2.2 5.675 0.056 1.1 0.275 1.863 0.894 3.194 1.644 3.506 4.313 6.55 7.338 8.35 1.806 1.075 3.55 1.65 5.6 1.837 3.794 0.344 6.156-1.169 7-4.494 0.163-0.637 0.188-0.956 0.087-1.137-0.038-0.063-0.45-0.35-0.925-0.631-0.469-0.288-1.356-0.837-1.975-1.231-0.613-0.394-1.262-0.781-1.438-0.863-0.387-0.181-0.944-0.2-1.269-0.044-0.225 0.106-0.275 0.163-0.9 1.006-0.413 0.556-1.369 1.6-1.575 1.706-0.144 0.081-0.325 0.012-1.012-0.375-1.494-0.837-3.537-2.462-4.544-3.6-0.75-0.856-1.3-1.75-1.3-2.131 0-0.050 0.213-0.338 0.469-0.637 0.825-0.956 1.125-1.744 0.938-2.469-0.225-0.875-1.719-3.769-2.244-4.35-0.275-0.306-0.825-0.406-1.694-0.319zM10.375 7.763c0.169 0.281 0.6 1.087 0.95 1.781 0.756 1.506 0.781 1.644 0.425 2.231-0.119 0.2-0.45 0.613-0.725 0.919-0.55 0.594-0.606 0.725-0.525 1.213 0.294 1.744 2.406 4.106 5.431 6.081 1.406 0.925 2.306 1.313 2.769 1.206 0.613-0.144 1.525-0.95 2.4-2.125l0.556-0.744 0.206 0.081c0.113 0.050 0.7 0.406 1.313 0.8 0.606 0.387 1.363 0.856 1.669 1.044 0.313 0.181 0.575 0.344 0.594 0.356 0.113 0.1-0.506 1.738-0.813 2.131-0.4 0.519-0.85 0.894-1.4 1.163-0.744 0.369-1.25 0.481-2.331 0.519-3.156 0.119-6.15-1.106-8.875-3.644-1.863-1.731-3.756-4.488-4.619-6.725-0.625-1.613-0.519-3.181 0.338-4.912 0.256-0.519 0.925-1.537 1.125-1.719 0.113-0.1 0.331-0.144 0.869-0.156l0.325-0.013 0.319 0.513z"></path>
</symbol>
</defs>
</svg>
